<svg id="picture" width="902.4" height="516" xmlns="http://www.w3.org/2000/svg" xmlns:xlink= "http://www.w3.org/1999/xlink"><rect x="0" y="0" width="902.4" height="516" fill="black"></rect><polygon style="fill: rgb(71, 71, 71);" points="-9.70494 148.761 -11.0666 154.269 917.21 462.384 909.837 466.119"></polygon><polygon style="fill: rgb(51, 51, 51);" points="362.313 -8.9125 366.264 -12.3148 753.98 525.702 756.819 525.064"></polygon><polygon style="fill: rgb(137, 137, 137);" points="-7.86285 370.341 -8.80971 372.258 916.108 202.696 912.244 207.597"></polygon><polygon style="fill: rgb(242, 242, 242);" points="833.972 -5.60086 826.658 -7.09902 874.654 522.065 872.284 522.837"></polygon><polygon style="fill: rgb(209, 209, 209);" points="-11.6864 104.01 -9.16838 108.545 916.407 332.792 911.311 341.401"></polygon><polygon style="fill: rgb(58, 58, 58);" points="855.35 -13.1437 852.635 -10.6796 692.569 527.018 698.658 529.375"></polygon><polygon style="fill: rgb(181, 181, 181);" points="499.919 -11.8596 503.841 -14.2501 445.54 526.971 442.525 525.602"></polygon><polygon style="fill: rgb(89, 89, 89);" points="515.85 -14.9816 516.105 -14.6202 878.075 526.487 872.425 522.992"></polygon><circle cx="369.59772037999767" cy="44.8628871352272" r="37.127131175728664" fill="#d6d6d6"></circle><polygon style="fill: rgb(163, 163, 163);" points="459.226 -12.8044 461.228 -13.701 210.005 523.31 206.978 527.883"></polygon><circle cx="347.50389475083983" cy="14.814514533785964" r="10.826205486776491" fill="#262626"></circle><polygon style="fill: rgb(63, 63, 63);" points="609.63 -11.5215 612.046 -8.24048 804.453 527.326 800.87 521.048"></polygon><polygon style="fill: rgb(84, 84, 84);" points="-6.76139 431.56 -8.93589 432.03 913.29 53.8296 909.195 59.179"></polygon><polygon style="fill: rgb(214, 214, 214);" points="497.603 -11.5011 499.519 -8.57948 67.9708 526.876 70.3739 525.47"></polygon><circle cx="192.08370581410685" cy="368.4988882256109" r="62.939090678976854" fill="#161616"></circle><polygon style="fill: rgb(56, 56, 56);" points="855.022 -8.07671 853.204 -6.65047 859.081 521.337 861.724 529.536"></polygon><polygon style="fill: rgb(109, 109, 109);" points="732.577 -7.08299 732.358 -10.9731 238.86 528.455 243.541 522.498"></polygon><polygon style="fill: rgb(204, 204, 204);" points="-12.3441 471.388 -11.6851 475.16 909.393 212.651 913.531 206.331"></polygon><polygon style="fill: rgb(132, 132, 132);" points="-11.1757 99.0976 -12.9408 98.5546 916.99 448.193 909.865 448.092"></polygon><circle cx="763.9284930833833" cy="85.79820545822561" r="7.173927969847833" fill="#969696"></circle><polygon style="fill: rgb(170, 170, 170);" points="-5.643 294.121 -6.44278 299.424 917.373 362.36 908.416 365.675"></polygon><polygon style="fill: rgb(91, 91, 91);" points="95.2413 -8.66391 102.545 -5.64628 642.702 529.586 642.685 530.294"></polygon><circle cx="16.65396847961735" cy="154.69102731785907" r="57.03979211220796" fill="#212121"></circle><polygon style="fill: rgb(73, 73, 73);" points="121.225 -13.3594 125.735 -10.1399 720.564 526.926 723.304 523.708"></polygon><polygon style="fill: rgb(163, 163, 163);" points="-7.42501 355.71 -7.60675 348.204 909.301 476.358 916.152 473.79"></polygon></svg>
